<?xml version="1.0" encoding="UTF-8"?>
<svg xmlns="http://www.w3.org/2000/svg" xmlns:xlink="http://www.w3.org/1999/xlink" width="618px" height="456px" viewBox="0 0 618 456" version="1.1">
<g id="surface1">
<path style=" stroke:none;fill-rule:nonzero;fill:rgb(100%,39.607843%,51.764706%);fill-opacity:1;" d="M 82.972656 60.121094 C 82.972656 81.535156 68.722656 98.894531 51.140625 98.894531 C 33.558594 98.894531 19.304688 81.535156 19.304688 60.121094 C 19.304688 38.710938 33.558594 21.351562 51.140625 21.351562 C 68.722656 21.351562 82.972656 38.710938 82.972656 60.121094 Z M 82.972656 60.121094 "/>
<path style=" stroke:none;fill-rule:nonzero;fill:rgb(90.196078%,90.196078%,90.196078%);fill-opacity:1;" d="M 614.542969 440.660156 C 614.542969 432.28125 476.972656 425.488281 307.273438 425.488281 C 137.570312 425.488281 0 432.28125 0 440.660156 C 0 449.039062 137.570312 455.832031 307.273438 455.832031 C 476.972656 455.832031 614.542969 449.039062 614.542969 440.660156 Z M 614.542969 440.660156 "/>
<path style=" stroke:none;fill-rule:nonzero;fill:rgb(14.117647%,12.54902%,44.313725%);fill-opacity:1;" d="M 156.402344 155.277344 C 156.402344 207.878906 121.390625 250.519531 78.203125 250.519531 C 35.011719 250.519531 0 207.878906 0 155.277344 C 0 102.671875 35.011719 60.03125 78.203125 60.03125 C 121.390625 60.03125 156.402344 102.671875 156.402344 155.277344 Z M 156.402344 155.277344 "/>
<path style=" stroke:none;fill-rule:nonzero;fill:rgb(24.705882%,23.921569%,33.72549%);fill-opacity:1;" d="M 85.738281 442.160156 L 69.722656 442.160156 L 77.023438 140.929688 Z M 85.738281 442.160156 "/>
<path style=" stroke:none;fill-rule:nonzero;fill:rgb(24.705882%,23.921569%,33.72549%);fill-opacity:1;" d="M 78.4375 198.019531 L 95.632812 169.046875 L 78.203125 205.191406 L 76.316406 201.175781 Z M 78.4375 198.019531 "/>
<path style=" stroke:none;fill-rule:nonzero;fill:rgb(24.705882%,23.921569%,33.72549%);fill-opacity:1;" d="M 76.550781 227.285156 L 59.359375 198.308594 L 76.789062 234.457031 L 78.671875 230.4375 Z M 76.550781 227.285156 "/>
<path style=" stroke:none;fill-rule:nonzero;fill:rgb(24.705882%,23.921569%,33.72549%);fill-opacity:1;" d="M 572.675781 442.476562 L 556.65625 442.476562 L 563.960938 141.246094 Z M 572.675781 442.476562 "/>
<path style=" stroke:none;fill-rule:nonzero;fill:rgb(24.705882%,23.921569%,33.72549%);fill-opacity:1;" d="M 565.371094 198.339844 L 582.566406 169.363281 L 565.136719 205.511719 L 563.253906 201.492188 Z M 565.371094 198.339844 "/>
<path style=" stroke:none;fill-rule:nonzero;fill:rgb(24.705882%,23.921569%,33.72549%);fill-opacity:1;" d="M 563.488281 227.601562 L 546.292969 198.625 L 563.722656 234.773438 L 565.609375 230.757812 Z M 563.488281 227.601562 "/>
<path style=" stroke:none;fill-rule:nonzero;fill:rgb(24.705882%,23.921569%,33.72549%);fill-opacity:1;" d="M 463.367188 264.996094 C 463.367188 362.988281 398.144531 442.425781 317.6875 442.425781 C 237.234375 442.425781 172.011719 362.988281 172.011719 264.996094 C 172.011719 167.003906 237.234375 87.566406 317.6875 87.566406 C 398.144531 87.566406 463.367188 167.003906 463.367188 264.996094 Z M 463.367188 264.996094 "/>
<path style=" stroke:none;fill-rule:nonzero;fill:rgb(100%,100%,100%);fill-opacity:1;" d="M 451.308594 264.996094 C 451.308594 354.875 391.484375 427.738281 317.6875 427.738281 C 243.894531 427.738281 184.070312 354.875 184.070312 264.996094 C 184.070312 175.117188 243.894531 102.253906 317.6875 102.253906 C 391.484375 102.253906 451.308594 175.117188 451.308594 264.996094 Z M 451.308594 264.996094 "/>
<path style=" stroke:none;fill-rule:nonzero;fill:rgb(24.705882%,23.921569%,33.72549%);fill-opacity:1;" d="M 335.054688 265.585938 C 335.054688 277.589844 327.0625 287.324219 317.207031 287.324219 C 307.347656 287.324219 299.359375 277.589844 299.359375 265.585938 C 299.359375 253.578125 307.347656 243.847656 317.207031 243.847656 C 327.0625 243.847656 335.054688 253.578125 335.054688 265.585938 Z M 335.054688 265.585938 "/>
<path style=" stroke:none;fill-rule:nonzero;fill:rgb(24.705882%,23.921569%,33.72549%);fill-opacity:1;" d="M 313.347656 110.480469 L 321.066406 110.480469 L 321.066406 128.105469 L 313.347656 128.105469 Z M 313.347656 110.480469 "/>
<path style=" stroke:none;fill-rule:nonzero;fill:rgb(24.705882%,23.921569%,33.72549%);fill-opacity:1;" d="M 313.347656 403.0625 L 321.066406 403.0625 L 321.066406 420.6875 L 313.347656 420.6875 Z M 313.347656 403.0625 "/>
<path style=" stroke:none;fill-rule:nonzero;fill:rgb(24.705882%,23.921569%,33.72549%);fill-opacity:1;" d="M 204.328125 260.882812 L 204.328125 270.285156 L 189.859375 270.285156 L 189.859375 260.882812 Z M 204.328125 260.882812 "/>
<path style=" stroke:none;fill-rule:nonzero;fill:rgb(24.705882%,23.921569%,33.72549%);fill-opacity:1;" d="M 444.554688 260.882812 L 444.554688 270.285156 L 430.082031 270.285156 L 430.082031 260.882812 Z M 444.554688 260.882812 "/>
<path style=" stroke:none;fill-rule:nonzero;fill:rgb(24.705882%,23.921569%,33.72549%);fill-opacity:1;" d="M 312.0625 275.019531 L 318.65625 256.652344 L 401.304688 312.402344 Z M 312.0625 275.019531 "/>
<path style=" stroke:none;fill-rule:nonzero;fill:rgb(24.705882%,23.921569%,33.72549%);fill-opacity:1;" d="M 298.875 44.679688 L 336.5 44.679688 L 336.5 97.554688 L 298.875 97.554688 Z M 298.875 44.679688 "/>
<path style=" stroke:none;fill-rule:nonzero;fill:rgb(24.705882%,23.921569%,33.72549%);fill-opacity:1;" d="M 361.101562 44.679688 C 361.101562 36.566406 341.667969 29.992188 317.6875 29.992188 C 293.710938 29.992188 274.273438 36.566406 274.273438 44.679688 C 274.273438 52.789062 293.710938 59.367188 317.6875 59.367188 C 341.667969 59.367188 361.101562 52.789062 361.101562 44.679688 Z M 361.101562 44.679688 "/>
<path style=" stroke:none;fill-rule:nonzero;fill:rgb(100%,72.156863%,72.156863%);fill-opacity:1;" d="M 398.96875 296.429688 L 396.558594 300.542969 C 396.558594 300.542969 385.464844 316.40625 384.980469 308.765625 C 384.5 301.128906 393.179688 295.839844 393.179688 295.839844 L 398.003906 292.316406 Z M 398.96875 296.429688 "/>
<path style=" stroke:none;fill-rule:nonzero;fill:rgb(100%,72.156863%,72.156863%);fill-opacity:1;" d="M 467.636719 310.304688 L 469.65625 314.71875 C 469.65625 314.71875 476.675781 333.722656 470.804688 330.984375 C 464.929688 328.246094 464.722656 316.425781 464.722656 316.425781 L 464.171875 309.605469 Z M 467.636719 310.304688 "/>
<path style=" stroke:none;fill-rule:nonzero;fill:rgb(18.431373%,18.039216%,25.490196%);fill-opacity:1;" d="M 471.464844 214.128906 C 471.464844 224.007812 464.886719 232.019531 456.777344 232.019531 C 448.664062 232.019531 442.085938 224.007812 442.085938 214.128906 C 442.085938 204.25 448.664062 196.238281 456.777344 196.238281 C 464.886719 196.238281 471.464844 204.25 471.464844 214.128906 Z M 471.464844 214.128906 "/>
<path style=" stroke:none;fill-rule:nonzero;fill:rgb(100%,72.156863%,72.156863%);fill-opacity:1;" d="M 455.410156 361.054688 L 457.339844 376.332031 L 457.339844 381.03125 L 468.433594 381.03125 L 468.433594 375.15625 C 468.433594 375.15625 468.914062 364.582031 466.984375 361.644531 C 465.054688 358.707031 455.410156 361.054688 455.410156 361.054688 Z M 455.410156 361.054688 "/>
<path style=" stroke:none;fill-rule:nonzero;fill:rgb(100%,72.156863%,72.156863%);fill-opacity:1;" d="M 435.632812 361.054688 L 437.5625 376.332031 L 437.5625 381.03125 L 448.65625 381.03125 L 448.65625 375.15625 C 448.65625 375.15625 449.136719 364.582031 447.207031 361.644531 C 445.277344 358.707031 435.632812 361.054688 435.632812 361.054688 Z M 435.632812 361.054688 "/>
<path style=" stroke:none;fill-rule:nonzero;fill:rgb(14.117647%,12.54902%,44.313725%);fill-opacity:1;" d="M 443.097656 238.355469 C 443.097656 238.355469 438.828125 241.09375 441.746094 247.324219 C 444.660156 253.554688 461.761719 318.023438 461.761719 318.023438 L 471.625 314.613281 L 462.925781 273.839844 L 457.945312 248.214844 Z M 443.097656 238.355469 "/>
<path style=" stroke:none;fill-rule:nonzero;fill:rgb(100%,72.156863%,72.156863%);fill-opacity:1;" d="M 466.261719 219.171875 C 466.261719 226.632812 461.296875 232.683594 455.167969 232.683594 C 449.039062 232.683594 444.074219 226.632812 444.074219 219.171875 C 444.074219 211.707031 449.039062 205.65625 455.167969 205.65625 C 461.296875 205.65625 466.261719 211.707031 466.261719 219.171875 Z M 466.261719 219.171875 "/>
<path style=" stroke:none;fill-rule:nonzero;fill:rgb(100%,72.156863%,72.156863%);fill-opacity:1;" d="M 460.234375 221.226562 L 458.785156 248.839844 L 448.65625 240.027344 C 448.65625 240.027344 452.03125 223.578125 451.066406 222.402344 Z M 460.234375 221.226562 "/>
<path style=" stroke:none;fill-rule:nonzero;fill:rgb(14.117647%,12.54902%,44.313725%);fill-opacity:1;" d="M 460.234375 246.488281 L 449.320312 236.648438 C 449.320312 236.648438 444.3125 234.152344 442.867188 237.089844 C 441.417969 240.027344 434.183594 283.503906 438.042969 291.730469 C 438.042969 291.730469 458.785156 297.015625 463.125 294.078125 L 465.054688 278.804688 C 465.054688 278.804688 467.46875 269.402344 463.609375 263.527344 Z M 460.234375 246.488281 "/>
<path style=" stroke:none;fill-rule:nonzero;fill:rgb(14.117647%,12.54902%,44.313725%);fill-opacity:1;" d="M 445.761719 237.675781 C 445.761719 237.675781 441.902344 234.152344 438.523438 240.027344 C 435.148438 245.902344 394.628906 292.316406 394.628906 292.316406 L 401.382812 301.714844 L 427.914062 274.691406 L 444.796875 258.242188 Z M 445.761719 237.675781 "/>
<path style=" stroke:none;fill-rule:nonzero;fill:rgb(18.431373%,18.039216%,25.490196%);fill-opacity:1;" d="M 463.367188 293.785156 C 463.367188 293.785156 439.488281 288.203125 437.078125 292.316406 L 436.597656 298.777344 C 436.597656 298.777344 431.289062 311.117188 434.183594 331.09375 C 437.078125 351.066406 435.148438 363.40625 435.148438 363.40625 C 435.148438 363.40625 448.171875 361.644531 457.820312 363.40625 C 467.46875 365.167969 468.914062 363.40625 468.914062 363.40625 Z M 463.367188 293.785156 "/>
<path style=" stroke:none;fill-rule:nonzero;fill:rgb(18.431373%,18.039216%,25.490196%);fill-opacity:1;" d="M 469.398438 378.679688 L 455.410156 379.269531 L 460.234375 423.332031 C 460.234375 423.332031 456.375 442.132812 460.714844 443.308594 C 463.734375 444.050781 466.800781 444.445312 469.878906 444.484375 C 469.878906 444.484375 474.222656 449.769531 479.046875 449.183594 C 482.25 448.683594 485.351562 447.492188 488.210938 445.660156 C 488.210938 445.660156 489.175781 442.132812 485.796875 440.957031 C 482.421875 439.78125 473.257812 436.257812 471.328125 423.921875 Z M 469.398438 378.679688 "/>
<path style=" stroke:none;fill-rule:nonzero;fill:rgb(18.431373%,18.039216%,25.490196%);fill-opacity:1;" d="M 449.621094 378.679688 L 435.632812 379.269531 L 440.453125 423.332031 C 440.453125 423.332031 436.597656 442.132812 440.9375 443.308594 C 443.957031 444.050781 447.023438 444.445312 450.101562 444.484375 C 450.101562 444.484375 454.445312 449.769531 459.269531 449.183594 C 462.472656 448.683594 465.574219 447.492188 468.433594 445.660156 C 468.433594 445.660156 469.398438 442.132812 466.019531 440.957031 C 462.644531 439.78125 453.480469 436.257812 451.550781 423.921875 Z M 449.621094 378.679688 "/>
<path style=" stroke:none;fill-rule:nonzero;fill:rgb(18.431373%,18.039216%,25.490196%);fill-opacity:1;" d="M 467.992188 195.300781 C 467.992188 199.386719 465.269531 202.703125 461.914062 202.703125 C 458.558594 202.703125 455.835938 199.386719 455.835938 195.300781 C 455.835938 191.210938 458.558594 187.898438 461.914062 187.898438 C 465.269531 187.898438 467.992188 191.210938 467.992188 195.300781 Z M 467.992188 195.300781 "/>
<path style=" stroke:none;fill-rule:nonzero;fill:rgb(18.431373%,18.039216%,25.490196%);fill-opacity:1;" d="M 470.019531 191.289062 C 470.015625 187.5 467.667969 184.324219 464.574219 183.925781 C 464.785156 183.902344 464.996094 183.886719 465.207031 183.886719 C 468.5625 183.886719 471.285156 187.203125 471.285156 191.289062 C 471.285156 195.378906 468.5625 198.691406 465.207031 198.691406 C 464.996094 198.691406 464.785156 198.679688 464.574219 198.652344 C 467.667969 198.257812 470.015625 195.078125 470.019531 191.289062 Z M 470.019531 191.289062 "/>
<path style=" stroke:none;fill-rule:nonzero;fill:rgb(18.431373%,18.039216%,25.490196%);fill-opacity:1;" d="M 465.195312 210.335938 C 465.195312 206.246094 460.660156 202.933594 455.066406 202.933594 C 449.472656 202.933594 444.9375 206.246094 444.9375 210.335938 C 444.9375 214.421875 449.472656 217.738281 455.066406 217.738281 C 460.660156 217.738281 465.195312 214.421875 465.195312 210.335938 Z M 465.195312 210.335938 "/>
<path style=" stroke:none;fill-rule:nonzero;fill:rgb(90.196078%,90.196078%,90.196078%);fill-opacity:1;" d="M 614.621094 35.527344 C 613.769531 17.125 602.101562 2.183594 587.058594 0.214844 C 572.011719 -1.757812 558.003906 9.828125 553.960938 27.589844 C 553.585938 27.574219 553.210938 27.554688 552.832031 27.554688 C 539.113281 27.558594 527.035156 38.570312 523.167969 54.601562 C 514.0625 49.730469 503.40625 52.957031 497.238281 62.457031 L 593.683594 62.457031 C 599.371094 62.476562 604.816406 59.675781 608.769531 54.699219 C 612.726562 49.726562 614.84375 43.003906 614.644531 36.082031 C 614.636719 35.898438 614.632812 35.714844 614.621094 35.527344 Z M 614.621094 35.527344 "/>
<path style=" stroke:none;fill-rule:nonzero;fill:rgb(90.196078%,90.196078%,90.196078%);fill-opacity:1;" d="M 542.300781 104.667969 C 542.300781 110.253906 538.582031 114.78125 533.996094 114.78125 C 529.410156 114.78125 525.691406 110.253906 525.691406 104.667969 C 525.691406 99.082031 529.410156 94.554688 533.996094 94.554688 C 538.582031 94.554688 542.300781 99.082031 542.300781 104.667969 Z M 542.300781 104.667969 "/>
<path style=" stroke:none;fill-rule:nonzero;fill:rgb(90.196078%,90.196078%,90.196078%);fill-opacity:1;" d="M 565.984375 80.820312 C 565.984375 85.472656 562.890625 89.242188 559.070312 89.242188 C 555.25 89.242188 552.15625 85.472656 552.15625 80.820312 C 552.15625 76.167969 555.25 72.398438 559.070312 72.398438 C 562.890625 72.398438 565.984375 76.167969 565.984375 80.820312 Z M 565.984375 80.820312 "/>
<path style=" stroke:none;fill-rule:nonzero;fill:rgb(90.196078%,90.196078%,90.196078%);fill-opacity:1;" d="M 601.125 126.582031 C 601.125 132.167969 597.40625 136.695312 592.820312 136.695312 C 588.234375 136.695312 584.515625 132.167969 584.515625 126.582031 C 584.515625 120.996094 588.234375 116.46875 592.820312 116.46875 C 597.40625 116.46875 601.125 120.996094 601.125 126.582031 Z M 601.125 126.582031 "/>
<path style=" stroke:none;fill-rule:nonzero;fill:rgb(90.196078%,90.196078%,90.196078%);fill-opacity:1;" d="M 538.148438 172.941406 C 538.148438 178.527344 534.429688 183.054688 529.84375 183.054688 C 525.257812 183.054688 521.539062 178.527344 521.539062 172.941406 C 521.539062 167.355469 525.257812 162.828125 529.84375 162.828125 C 534.429688 162.828125 538.148438 167.355469 538.148438 172.941406 Z M 538.148438 172.941406 "/>
<path style=" stroke:none;fill-rule:nonzero;fill:rgb(90.196078%,90.196078%,90.196078%);fill-opacity:1;" d="M 601.125 231.101562 C 601.125 236.6875 597.40625 241.214844 592.820312 241.214844 C 588.234375 241.214844 584.515625 236.6875 584.515625 231.101562 C 584.515625 225.515625 588.234375 220.984375 592.820312 220.984375 C 597.40625 220.984375 601.125 225.515625 601.125 231.101562 Z M 601.125 231.101562 "/>
<path style=" stroke:none;fill-rule:nonzero;fill:rgb(90.196078%,90.196078%,90.196078%);fill-opacity:1;" d="M 579.65625 426.132812 C 579.660156 426.023438 579.671875 425.917969 579.671875 425.804688 C 579.675781 422.363281 578.238281 419.152344 575.855469 417.292969 C 573.476562 415.429688 570.484375 415.175781 567.914062 416.613281 C 565.476562 413.1875 561.457031 412.164062 558.09375 414.113281 C 554.734375 416.0625 552.851562 420.503906 553.496094 424.972656 C 553.457031 424.96875 553.414062 424.964844 553.371094 424.964844 C 549.742188 424.957031 546.527344 427.824219 545.4375 432.042969 C 544.347656 436.261719 545.636719 440.851562 548.617188 443.378906 C 551.59375 445.90625 555.578125 445.78125 558.449219 443.070312 C 559.789062 446.253906 562.410156 448.335938 565.34375 448.546875 C 568.273438 448.757812 571.078125 447.066406 572.71875 444.097656 C 575.421875 446.492188 579.039062 446.679688 581.898438 444.570312 C 584.757812 442.460938 586.296875 438.46875 585.808594 434.445312 C 585.320312 430.417969 582.894531 427.140625 579.65625 426.132812 Z M 579.65625 426.132812 "/>
<path style=" stroke:none;fill-rule:nonzero;fill:rgb(90.196078%,90.196078%,90.196078%);fill-opacity:1;" d="M 603.890625 190.640625 C 603.890625 192.96875 602.34375 194.855469 600.429688 194.855469 C 598.519531 194.855469 596.972656 192.96875 596.972656 190.640625 C 596.972656 188.3125 598.519531 186.425781 600.429688 186.425781 C 602.34375 186.425781 603.890625 188.3125 603.890625 190.640625 Z M 603.890625 190.640625 "/>
<path style=" stroke:none;fill-rule:nonzero;fill:rgb(90.196078%,90.196078%,90.196078%);fill-opacity:1;" d="M 581.746094 89.496094 C 581.746094 91.824219 580.195312 93.710938 578.285156 93.710938 C 576.375 93.710938 574.824219 91.824219 574.824219 89.496094 C 574.824219 87.167969 576.375 85.28125 578.285156 85.28125 C 580.195312 85.28125 581.746094 87.167969 581.746094 89.496094 Z M 581.746094 89.496094 "/>
<path style=" stroke:none;fill-rule:nonzero;fill:rgb(90.196078%,90.196078%,90.196078%);fill-opacity:1;" d="M 569.980469 194.011719 C 569.980469 196.339844 568.433594 198.226562 566.519531 198.226562 C 564.609375 198.226562 563.0625 196.339844 563.0625 194.011719 C 563.0625 191.6875 564.609375 189.800781 566.519531 189.800781 C 568.433594 189.800781 569.980469 191.6875 569.980469 194.011719 Z M 569.980469 194.011719 "/>
<path style=" stroke:none;fill-rule:nonzero;fill:rgb(90.196078%,90.196078%,90.196078%);fill-opacity:1;" d="M 572.75 189.800781 C 572.75 192.125 571.199219 194.011719 569.289062 194.011719 C 567.378906 194.011719 565.828125 192.125 565.828125 189.800781 C 565.828125 187.472656 567.378906 185.585938 569.289062 185.585938 C 571.199219 185.585938 572.75 187.472656 572.75 189.800781 Z M 572.75 189.800781 "/>
<path style=" stroke:none;fill-rule:nonzero;fill:rgb(90.196078%,90.196078%,90.196078%);fill-opacity:1;" d="M 574.824219 185.585938 C 574.824219 187.910156 573.277344 189.800781 571.367188 189.800781 C 569.453125 189.800781 567.90625 187.910156 567.90625 185.585938 C 567.90625 183.257812 569.453125 181.371094 571.367188 181.371094 C 573.277344 181.371094 574.824219 183.257812 574.824219 185.585938 Z M 574.824219 185.585938 "/>
<path style=" stroke:none;fill-rule:nonzero;fill:rgb(90.196078%,90.196078%,90.196078%);fill-opacity:1;" d="M 566.519531 220.984375 C 566.519531 223.3125 564.972656 225.199219 563.0625 225.199219 C 561.148438 225.199219 559.601562 223.3125 559.601562 220.984375 C 559.601562 218.65625 561.148438 216.769531 563.0625 216.769531 C 564.972656 216.769531 566.519531 218.65625 566.519531 220.984375 Z M 566.519531 220.984375 "/>
<path style=" stroke:none;fill-rule:nonzero;fill:rgb(90.196078%,90.196078%,90.196078%);fill-opacity:1;" d="M 617.734375 268.1875 C 617.734375 270.515625 616.183594 272.402344 614.273438 272.402344 C 612.363281 272.402344 610.8125 270.515625 610.8125 268.1875 C 610.8125 265.859375 612.363281 263.972656 614.273438 263.972656 C 616.183594 263.972656 617.734375 265.859375 617.734375 268.1875 Z M 617.734375 268.1875 "/>
<path style=" stroke:none;fill-rule:nonzero;fill:rgb(90.196078%,90.196078%,90.196078%);fill-opacity:1;" d="M 543.683594 270.714844 C 543.683594 273.042969 542.132812 274.929688 540.222656 274.929688 C 538.3125 274.929688 536.761719 273.042969 536.761719 270.714844 C 536.761719 268.386719 538.3125 266.5 540.222656 266.5 C 542.132812 266.5 543.683594 268.386719 543.683594 270.714844 Z M 543.683594 270.714844 "/>
<path style=" stroke:none;fill-rule:nonzero;fill:rgb(90.196078%,90.196078%,90.196078%);fill-opacity:1;" d="M 547.835938 140.910156 C 547.835938 143.238281 546.285156 145.125 544.375 145.125 C 542.464844 145.125 540.914062 143.238281 540.914062 140.910156 C 540.914062 138.585938 542.464844 136.695312 544.375 136.695312 C 546.285156 136.695312 547.835938 138.585938 547.835938 140.910156 Z M 547.835938 140.910156 "/>
<path style=" stroke:none;fill-rule:nonzero;fill:rgb(90.196078%,90.196078%,90.196078%);fill-opacity:1;" d="M 563.753906 216.769531 C 563.753906 219.097656 562.203125 220.984375 560.292969 220.984375 C 558.382812 220.984375 556.832031 219.097656 556.832031 216.769531 C 556.832031 214.445312 558.382812 212.558594 560.292969 212.558594 C 562.203125 212.558594 563.753906 214.445312 563.753906 216.769531 Z M 563.753906 216.769531 "/>
<path style=" stroke:none;fill-rule:nonzero;fill:rgb(90.196078%,90.196078%,90.196078%);fill-opacity:1;" d="M 560.292969 210.027344 C 560.292969 212.355469 558.742188 214.242188 556.832031 214.242188 C 554.921875 214.242188 553.371094 212.355469 553.371094 210.027344 C 553.371094 207.699219 554.921875 205.8125 556.832031 205.8125 C 558.742188 205.8125 560.292969 207.699219 560.292969 210.027344 Z M 560.292969 210.027344 "/>
</g>
</svg>
