<?xml version="1.0" encoding="UTF-8"?>
<svg xmlns="http://www.w3.org/2000/svg" xmlns:xlink="http://www.w3.org/1999/xlink" width="618px" height="456px" viewBox="0 0 618 456" version="1.1">
<g id="surface1">
<path style=" stroke:none;fill-rule:nonzero;fill:rgb(94.901961%,94.901961%,94.901961%);fill-opacity:1;" d="M 583.960938 453.96875 C 578.714844 453.625 573.941406 450.253906 571.78125 445.035156 C 571.679688 444.792969 571.582031 444.546875 571.492188 444.292969 C 570.703125 442.070312 570.457031 439.515625 571.320312 437.324219 C 572.183594 435.132812 574.339844 433.46875 576.503906 433.816406 C 578.667969 434.160156 580.355469 436.90625 579.460938 439.082031 C 579.261719 434.6875 579.097656 430.070312 581.320312 426.246094 C 582.546875 424.246094 584.144531 422.929688 585.878906 422.496094 C 590.363281 421.238281 593.339844 425.277344 593.9375 429.351562 C 594.378906 432.363281 593.769531 435.421875 593.164062 438.398438 C 595.03125 434.886719 599.464844 433.324219 602.863281 434.980469 C 606.261719 436.640625 608.144531 441.289062 606.984375 445.144531 C 605.617188 449.683594 601.058594 452.03125 596.824219 453.273438 C 593.328125 454.296875 588.085938 454.242188 583.960938 453.96875 Z M 583.960938 453.96875 "/>
<path style=" stroke:none;fill-rule:nonzero;fill:rgb(94.901961%,94.901961%,94.901961%);fill-opacity:1;" d="M 401.429688 453.96875 C 396.1875 453.625 391.410156 450.253906 389.25 445.035156 C 389.148438 444.792969 389.054688 444.546875 388.964844 444.292969 C 388.175781 442.070312 387.929688 439.515625 388.792969 437.324219 C 389.65625 435.132812 391.808594 433.46875 393.972656 433.816406 C 396.136719 434.160156 397.828125 436.90625 396.929688 439.082031 C 396.730469 434.6875 396.566406 430.070312 398.792969 426.246094 C 400.019531 424.246094 401.617188 422.929688 403.351562 422.496094 C 407.835938 421.238281 410.8125 425.277344 411.410156 429.351562 C 411.847656 432.363281 411.242188 435.421875 410.636719 438.398438 C 412.5 434.886719 416.9375 433.324219 420.335938 434.980469 C 423.730469 436.640625 425.617188 441.289062 424.457031 445.144531 C 423.089844 449.683594 418.53125 452.03125 414.296875 453.273438 C 410.800781 454.296875 405.554688 454.242188 401.429688 453.96875 Z M 401.429688 453.96875 "/>
<path style=" stroke:none;fill-rule:nonzero;fill:rgb(94.901961%,94.901961%,94.901961%);fill-opacity:1;" d="M 233.457031 192.085938 L 195.859375 192.085938 C 189.632812 192.074219 184.585938 184.042969 184.578125 174.128906 L 184.578125 62.035156 C 184.585938 52.121094 189.632812 44.085938 195.859375 44.078125 L 233.457031 44.078125 C 239.6875 44.085938 244.730469 52.121094 244.738281 62.035156 L 244.738281 174.128906 C 244.730469 184.042969 239.6875 192.074219 233.457031 192.085938 Z M 233.457031 192.085938 "/>
<path style=" stroke:none;fill-rule:nonzero;fill:rgb(100%,72.156863%,72.156863%);fill-opacity:1;" d="M 464.394531 442.042969 L 456.011719 442.042969 L 452.023438 390.582031 L 464.394531 390.582031 Z M 464.394531 442.042969 "/>
<path style=" stroke:none;fill-rule:nonzero;fill:rgb(18.431373%,18.039216%,25.490196%);fill-opacity:1;" d="M 466.53125 454.980469 L 439.507812 454.976562 L 439.507812 454.433594 C 439.507812 445.183594 444.214844 437.6875 450.023438 437.6875 L 466.53125 437.6875 Z M 466.53125 454.980469 "/>
<path style=" stroke:none;fill-rule:nonzero;fill:rgb(100%,72.156863%,72.156863%);fill-opacity:1;" d="M 558.019531 429.5625 L 550.117188 434.015625 L 535.566406 387.625 L 547.226562 381.050781 Z M 558.019531 429.5625 "/>
<path style=" stroke:none;fill-rule:nonzero;fill:rgb(18.431373%,18.039216%,25.490196%);fill-opacity:1;" d="M 562.746094 440.617188 L 537.273438 454.980469 L 537.160156 454.464844 C 535.21875 445.75 538.085938 436.179688 543.5625 433.089844 L 559.121094 424.320312 Z M 562.746094 440.617188 "/>
<path style=" stroke:none;fill-rule:nonzero;fill:rgb(18.431373%,18.039216%,25.490196%);fill-opacity:1;" d="M 464.160156 424.765625 C 463.972656 424.765625 463.785156 424.738281 463.597656 424.683594 L 453.351562 421.71875 C 451.910156 421.296875 450.855469 419.324219 450.820312 417 C 449.332031 307.171875 456.65625 233.371094 472.589844 180.472656 C 473.171875 178.550781 474.472656 177.453125 475.796875 177.769531 L 512.652344 186.242188 C 514.039062 186.5625 515.113281 188.324219 515.269531 190.535156 L 518.519531 236.140625 C 518.539062 236.386719 518.570312 236.628906 518.617188 236.863281 L 553.953125 405.410156 C 554.453125 407.960938 553.585938 410.683594 551.996094 411.539062 L 542.445312 416.605469 C 540.992188 417.363281 539.410156 416.320312 538.71875 414.148438 L 490.921875 270.671875 C 490.726562 270.050781 490.308594 269.695312 489.878906 269.78125 C 489.449219 269.867188 489.097656 270.375 489.003906 271.050781 L 467.152344 420.917969 C 466.851562 423.160156 465.601562 424.765625 464.160156 424.765625 Z M 464.160156 424.765625 "/>
<path style=" stroke:none;fill-rule:nonzero;fill:rgb(100%,72.156863%,72.156863%);fill-opacity:1;" d="M 435.03125 91.523438 C 435.117188 92.109375 435.171875 92.707031 435.195312 93.308594 L 464.5625 120.277344 L 471.699219 113.738281 L 479.308594 129.597656 L 467.378906 143.132812 C 465.402344 145.378906 462.726562 145.273438 460.820312 142.878906 L 430.535156 104.847656 C 427.738281 106.496094 424.589844 105.214844 422.632812 101.632812 C 420.671875 98.050781 420.3125 92.910156 421.722656 88.726562 C 423.136719 84.542969 426.027344 82.183594 428.984375 82.804688 C 431.941406 83.429688 434.351562 86.898438 435.03125 91.523438 Z M 435.03125 91.523438 "/>
<path style=" stroke:none;fill-rule:nonzero;fill:rgb(14.117647%,12.54902%,44.313725%);fill-opacity:1;" d="M 464.964844 117.582031 C 465.144531 116.1875 465.695312 114.984375 466.476562 114.289062 L 479.953125 102.292969 C 483.683594 97.714844 489.035156 98.796875 491.921875 104.722656 C 494.8125 110.644531 494.144531 119.167969 490.429688 123.78125 L 479.6875 141.542969 C 479.066406 142.570312 478.195312 143.117188 477.304688 143.039062 C 476.410156 142.960938 475.582031 142.265625 475.035156 141.140625 L 465.542969 121.554688 C 464.996094 120.429688 464.785156 118.976562 464.964844 117.582031 Z M 464.964844 117.582031 "/>
<path style=" stroke:none;fill-rule:nonzero;fill:rgb(100%,72.156863%,72.156863%);fill-opacity:1;" d="M 513.140625 62.105469 C 513.140625 76.867188 505.621094 88.835938 496.347656 88.835938 C 487.074219 88.835938 479.558594 76.867188 479.558594 62.105469 C 479.558594 47.34375 487.074219 35.375 496.347656 35.375 C 505.621094 35.375 513.140625 47.34375 513.140625 62.105469 Z M 513.140625 62.105469 "/>
<path style=" stroke:none;fill-rule:nonzero;fill:rgb(14.117647%,12.54902%,44.313725%);fill-opacity:1;" d="M 512.699219 191.941406 C 512.53125 191.941406 512.363281 191.921875 512.199219 191.878906 L 475.863281 182.394531 C 475.035156 182.179688 474.296875 181.429688 473.820312 180.324219 C 473.347656 179.222656 473.175781 177.855469 473.351562 176.546875 L 475.121094 163.277344 C 474.214844 161.128906 466.847656 142.441406 475.820312 124.890625 C 475.460938 111.921875 481.65625 100.859375 489.789062 99.941406 L 508.566406 97.671875 C 513.46875 97.078125 518.246094 100.316406 521.378906 106.351562 C 524.507812 112.386719 525.601562 120.46875 524.304688 128.019531 L 515.699219 188.132812 C 515.375 190.359375 514.132812 191.9375 512.699219 191.941406 Z M 512.699219 191.941406 "/>
<path style=" stroke:none;fill-rule:nonzero;fill:rgb(100%,72.156863%,72.156863%);fill-opacity:1;" d="M 546.628906 242.210938 C 547.878906 239.378906 548.273438 235.8125 547.710938 232.46875 C 547.148438 229.128906 545.683594 226.355469 543.710938 224.898438 L 523.023438 123.632812 L 511.03125 132.691406 L 533.667969 231.289062 C 532.320312 236.84375 533.796875 243.128906 537.101562 245.914062 C 540.410156 248.703125 544.503906 247.109375 546.628906 242.210938 Z M 546.628906 242.210938 "/>
<path style=" stroke:none;fill-rule:nonzero;fill:rgb(14.117647%,12.54902%,44.313725%);fill-opacity:1;" d="M 527.597656 140.492188 L 511.679688 148.148438 C 510.761719 148.589844 509.769531 148.375 508.960938 147.558594 C 508.152344 146.738281 507.609375 145.402344 507.46875 143.894531 L 505.050781 117.78125 C 503.617188 110.085938 506.371094 101.996094 511.199219 99.695312 C 516.03125 97.398438 521.121094 101.757812 522.574219 109.441406 L 529.625 133.238281 C 530.035156 134.617188 530.042969 136.210938 529.65625 137.605469 C 529.265625 139 528.515625 140.050781 527.597656 140.492188 Z M 527.597656 140.492188 "/>
<path style=" stroke:none;fill-rule:nonzero;fill:rgb(0%,0%,0%);fill-opacity:1;" d="M 480.027344 63.136719 C 487.640625 67.757812 496.246094 64.878906 502.046875 55.777344 C 500.285156 63.183594 500.777344 94.601562 500.777344 94.601562 C 500.777344 94.601562 516.398438 82.796875 518.515625 80.730469 C 531.03125 68.539062 513.769531 15.496094 499.410156 23.859375 C 496.980469 25.277344 494.949219 26.945312 493.964844 30.757812 C 491.820312 26.546875 487.761719 25.632812 484.640625 27.796875 C 481.515625 29.960938 479.296875 34.644531 478.105469 39.722656 C 476.195312 48.015625 476.695312 57.226562 479.46875 64.875 Z M 480.027344 63.136719 "/>
<path style=" stroke:none;fill-rule:nonzero;fill:rgb(24.705882%,23.921569%,33.72549%);fill-opacity:1;" d="M 406.757812 0 L 22.558594 0 C 10.105469 0.0195312 0.0117188 16.085938 0 35.914062 L 0 203.511719 C 0.0117188 223.339844 10.105469 239.40625 22.558594 239.425781 L 406.757812 239.425781 C 419.214844 239.40625 429.304688 223.339844 429.320312 203.511719 L 429.320312 35.914062 C 429.304688 16.085938 419.214844 0.0195312 406.757812 0 Z M 427.953125 203.511719 C 427.9375 222.136719 418.457031 237.226562 406.757812 237.25 L 22.558594 237.25 C 10.863281 237.226562 1.382812 222.136719 1.367188 203.511719 L 1.367188 35.914062 C 1.382812 17.292969 10.863281 2.199219 22.558594 2.175781 L 406.757812 2.175781 C 418.457031 2.199219 427.9375 17.292969 427.953125 35.914062 Z M 427.953125 203.511719 "/>
<path style=" stroke:none;fill-rule:nonzero;fill:rgb(24.705882%,23.921569%,33.72549%);fill-opacity:1;" d="M 60.671875 158.347656 C 56.140625 158.347656 52.46875 152.5 52.46875 145.289062 C 52.46875 138.074219 56.140625 132.230469 60.671875 132.230469 C 65.203125 132.230469 68.875 138.074219 68.875 145.289062 C 68.871094 152.496094 65.199219 158.339844 60.671875 158.347656 Z M 60.671875 134.40625 C 56.894531 134.40625 53.835938 139.277344 53.835938 145.289062 C 53.835938 151.300781 56.894531 156.171875 60.671875 156.171875 C 64.449219 156.171875 67.507812 151.300781 67.507812 145.289062 C 67.503906 139.28125 64.445312 134.414062 60.671875 134.40625 Z M 60.671875 134.40625 "/>
<path style=" stroke:none;fill-rule:nonzero;fill:rgb(24.705882%,23.921569%,33.72549%);fill-opacity:1;" d="M 60.402344 128.964844 C 60.023438 128.964844 59.71875 128.476562 59.71875 127.875 L 59.71875 115.359375 C 59.71875 114.757812 60.023438 114.273438 60.402344 114.273438 C 60.78125 114.273438 61.085938 114.757812 61.085938 115.359375 L 61.085938 127.875 C 61.085938 128.476562 60.78125 128.964844 60.402344 128.964844 Z M 60.402344 128.964844 "/>
<path style=" stroke:none;fill-rule:nonzero;fill:rgb(24.705882%,23.921569%,33.72549%);fill-opacity:1;" d="M 49.734375 145.949219 L 41.871094 145.949219 C 41.496094 145.949219 41.1875 145.460938 41.1875 144.859375 C 41.1875 144.257812 41.496094 143.773438 41.871094 143.773438 L 49.734375 143.773438 C 50.113281 143.773438 50.417969 144.257812 50.417969 144.859375 C 50.417969 145.460938 50.113281 145.949219 49.734375 145.949219 Z M 49.734375 145.949219 "/>
<path style=" stroke:none;fill-rule:nonzero;fill:rgb(24.705882%,23.921569%,33.72549%);fill-opacity:1;" d="M 78.445312 145.949219 L 70.585938 145.949219 C 70.207031 145.949219 69.902344 145.460938 69.902344 144.859375 C 69.902344 144.257812 70.207031 143.773438 70.585938 143.773438 L 78.445312 143.773438 C 78.824219 143.773438 79.128906 144.257812 79.128906 144.859375 C 79.128906 145.460938 78.824219 145.949219 78.445312 145.949219 Z M 78.445312 145.949219 "/>
<path style=" stroke:none;fill-rule:nonzero;fill:rgb(24.705882%,23.921569%,33.72549%);fill-opacity:1;" d="M 70.367188 134.050781 C 70.089844 134.050781 69.839844 133.78125 69.734375 133.371094 C 69.628906 132.957031 69.691406 132.488281 69.894531 132.179688 L 73.183594 127.09375 C 73.457031 126.675781 73.890625 126.6875 74.152344 127.117188 C 74.414062 127.550781 74.40625 128.238281 74.136719 128.65625 L 70.84375 133.742188 C 70.71875 133.9375 70.546875 134.050781 70.367188 134.050781 Z M 70.367188 134.050781 "/>
<path style=" stroke:none;fill-rule:nonzero;fill:rgb(24.705882%,23.921569%,33.72549%);fill-opacity:1;" d="M 50.292969 134.050781 C 50.113281 134.050781 49.941406 133.9375 49.816406 133.742188 L 46.523438 128.65625 C 46.253906 128.238281 46.246094 127.550781 46.507812 127.117188 C 46.773438 126.6875 47.203125 126.675781 47.476562 127.09375 L 50.769531 132.179688 C 50.96875 132.488281 51.03125 132.957031 50.925781 133.371094 C 50.820312 133.78125 50.570312 134.050781 50.292969 134.050781 Z M 50.292969 134.050781 "/>
<path style=" stroke:none;fill-rule:nonzero;fill:rgb(24.705882%,23.921569%,33.72549%);fill-opacity:1;" d="M 47.683594 163.789062 C 47.410156 163.789062 47.160156 163.527344 47.054688 163.125 C 46.945312 162.722656 47 162.257812 47.191406 161.945312 L 50.484375 156.546875 C 50.746094 156.113281 51.179688 156.105469 51.453125 156.523438 C 51.722656 156.941406 51.730469 157.632812 51.464844 158.0625 L 48.171875 163.460938 C 48.042969 163.671875 47.867188 163.789062 47.683594 163.789062 Z M 47.683594 163.789062 "/>
<path style=" stroke:none;fill-rule:nonzero;fill:rgb(24.705882%,23.921569%,33.72549%);fill-opacity:1;" d="M 74.34375 164.878906 C 74.160156 164.878906 73.984375 164.761719 73.855469 164.550781 L 69.878906 158.0625 C 69.617188 157.632812 69.621094 156.945312 69.890625 156.527344 C 70.160156 156.105469 70.59375 156.113281 70.859375 156.542969 L 74.832031 163.03125 C 75.027344 163.34375 75.082031 163.808594 74.976562 164.210938 C 74.867188 164.617188 74.621094 164.878906 74.34375 164.878906 Z M 74.34375 164.878906 "/>
<path style=" stroke:none;fill-rule:nonzero;fill:rgb(24.705882%,23.921569%,33.72549%);fill-opacity:1;" d="M 60.402344 175.761719 C 60.023438 175.761719 59.71875 175.273438 59.71875 174.671875 L 59.71875 162.15625 C 59.71875 161.554688 60.023438 161.070312 60.402344 161.070312 C 60.78125 161.070312 61.085938 161.554688 61.085938 162.15625 L 61.085938 174.671875 C 61.085938 175.273438 60.78125 175.761719 60.402344 175.761719 Z M 60.402344 175.761719 "/>
<path style=" stroke:none;fill-rule:nonzero;fill:rgb(24.705882%,23.921569%,33.72549%);fill-opacity:1;" d="M 149.828125 165.964844 L 127.003906 165.964844 C 122.15625 165.835938 118.265625 159.539062 118.265625 151.820312 C 118.265625 144.097656 122.15625 137.800781 127.003906 137.671875 L 128.75 137.671875 C 130.519531 131.714844 134.277344 127.902344 138.417969 127.875 C 144.136719 127.960938 148.835938 135.105469 149.148438 144.199219 L 149.828125 144.199219 C 153.558594 144.296875 156.550781 149.140625 156.550781 155.082031 C 156.550781 161.023438 153.558594 165.867188 149.828125 165.964844 Z M 127.003906 139.847656 C 122.910156 139.976562 119.636719 145.300781 119.636719 151.820312 C 119.636719 158.339844 122.910156 163.660156 127.003906 163.789062 L 149.828125 163.789062 C 152.804688 163.691406 155.183594 159.824219 155.183594 155.082031 C 155.183594 150.34375 152.804688 146.476562 149.828125 146.378906 L 148.484375 146.378906 C 148.105469 146.378906 147.800781 145.890625 147.800781 145.289062 C 147.84375 136.960938 143.648438 130.144531 138.417969 130.050781 C 134.660156 130.085938 131.277344 133.679688 129.820312 139.1875 C 129.710938 139.589844 129.464844 139.847656 129.191406 139.847656 Z M 127.003906 139.847656 "/>
<path style=" stroke:none;fill-rule:nonzero;fill:rgb(24.705882%,23.921569%,33.72549%);fill-opacity:1;" d="M 226.054688 145.351562 L 225.523438 143.347656 C 228.371094 141.429688 230.054688 136.714844 229.636719 131.839844 C 229.214844 126.96875 226.796875 123.148438 223.730469 122.523438 C 220.667969 121.898438 217.71875 124.621094 216.539062 129.167969 L 215.277344 128.339844 C 216.691406 122.882812 220.226562 119.613281 223.90625 120.363281 C 227.582031 121.113281 230.488281 125.699219 230.992188 131.546875 C 231.492188 137.394531 229.472656 143.050781 226.054688 145.351562 Z M 226.054688 145.351562 "/>
<path style=" stroke:none;fill-rule:nonzero;fill:rgb(24.705882%,23.921569%,33.72549%);fill-opacity:1;" d="M 227.078125 165.964844 L 204.253906 165.964844 C 199.40625 165.835938 195.515625 159.539062 195.515625 151.820312 C 195.515625 144.097656 199.40625 137.800781 204.253906 137.671875 L 206 137.671875 C 207.769531 131.714844 211.527344 127.902344 215.667969 127.875 C 221.386719 127.960938 226.085938 135.105469 226.398438 144.199219 L 227.078125 144.199219 C 230.808594 144.296875 233.800781 149.140625 233.800781 155.082031 C 233.800781 161.023438 230.808594 165.867188 227.078125 165.964844 Z M 204.253906 139.847656 C 200.160156 139.976562 196.886719 145.300781 196.886719 151.820312 C 196.886719 158.339844 200.160156 163.660156 204.253906 163.789062 L 227.078125 163.789062 C 230.054688 163.691406 232.433594 159.824219 232.433594 155.082031 C 232.433594 150.34375 230.054688 146.476562 227.078125 146.378906 L 225.734375 146.378906 C 225.355469 146.378906 225.050781 145.890625 225.050781 145.289062 C 225.09375 136.960938 220.898438 130.144531 215.667969 130.050781 C 211.910156 130.085938 208.527344 133.679688 207.070312 139.1875 C 206.960938 139.589844 206.714844 139.847656 206.441406 139.847656 Z M 204.253906 139.847656 "/>
<path style=" stroke:none;fill-rule:nonzero;fill:rgb(24.705882%,23.921569%,33.72549%);fill-opacity:1;" d="M 304.328125 160.523438 L 301.582031 160.523438 C 301.203125 160.523438 300.898438 160.039062 300.898438 159.4375 C 300.898438 158.835938 301.203125 158.347656 301.582031 158.347656 L 304.328125 158.347656 C 307.304688 158.25 309.683594 154.382812 309.683594 149.640625 C 309.683594 144.902344 307.304688 141.035156 304.328125 140.9375 L 302.984375 140.9375 C 302.605469 140.9375 302.300781 140.449219 302.300781 139.847656 C 302.34375 131.519531 298.148438 124.703125 292.917969 124.609375 C 289.160156 124.644531 285.777344 128.238281 284.320312 133.746094 C 284.210938 134.148438 283.964844 134.40625 283.691406 134.40625 L 281.503906 134.40625 C 277.410156 134.535156 274.136719 139.859375 274.136719 146.378906 C 274.136719 152.894531 277.410156 158.21875 281.503906 158.347656 L 283.625 158.347656 C 284.003906 158.347656 284.308594 158.835938 284.308594 159.4375 C 284.308594 160.039062 284.003906 160.523438 283.625 160.523438 L 281.503906 160.523438 C 276.65625 160.394531 272.765625 154.097656 272.765625 146.378906 C 272.765625 138.65625 276.65625 132.359375 281.503906 132.230469 L 283.25 132.230469 C 285.019531 126.273438 288.777344 122.460938 292.917969 122.433594 C 298.636719 122.519531 303.335938 129.664062 303.648438 138.757812 L 304.328125 138.757812 C 308.058594 138.855469 311.050781 143.699219 311.050781 149.640625 C 311.050781 155.582031 308.058594 160.425781 304.328125 160.523438 Z M 304.328125 160.523438 "/>
<path style=" stroke:none;fill-rule:nonzero;fill:rgb(24.705882%,23.921569%,33.72549%);fill-opacity:1;" d="M 292.804688 165.222656 C 292.425781 165.222656 292.121094 164.734375 292.121094 164.136719 L 292.121094 151.621094 C 292.121094 151.019531 292.425781 150.53125 292.804688 150.53125 C 293.179688 150.53125 293.488281 151.019531 293.488281 151.621094 L 293.488281 164.136719 C 293.488281 164.734375 293.179688 165.222656 292.804688 165.222656 Z M 292.804688 165.222656 "/>
<path style=" stroke:none;fill-rule:nonzero;fill:rgb(24.705882%,23.921569%,33.72549%);fill-opacity:1;" d="M 288.015625 171.753906 C 287.640625 171.753906 287.332031 171.265625 287.332031 170.664062 L 287.332031 158.148438 C 287.332031 157.546875 287.640625 157.0625 288.015625 157.0625 C 288.394531 157.0625 288.699219 157.546875 288.699219 158.148438 L 288.699219 170.664062 C 288.699219 171.265625 288.394531 171.753906 288.015625 171.753906 Z M 288.015625 171.753906 "/>
<path style=" stroke:none;fill-rule:nonzero;fill:rgb(24.705882%,23.921569%,33.72549%);fill-opacity:1;" d="M 297.589844 175.019531 C 297.210938 175.019531 296.90625 174.53125 296.90625 173.929688 L 296.90625 161.414062 C 296.90625 160.8125 297.210938 160.324219 297.589844 160.324219 C 297.964844 160.324219 298.273438 160.8125 298.273438 161.414062 L 298.273438 173.929688 C 298.273438 174.53125 297.964844 175.019531 297.589844 175.019531 Z M 297.589844 175.019531 "/>
<path style=" stroke:none;fill-rule:nonzero;fill:rgb(24.705882%,23.921569%,33.72549%);fill-opacity:1;" d="M 381.578125 160.523438 L 378.832031 160.523438 C 378.453125 160.523438 378.148438 160.039062 378.148438 159.4375 C 378.148438 158.835938 378.453125 158.347656 378.832031 158.347656 L 381.578125 158.347656 C 384.554688 158.25 386.933594 154.382812 386.933594 149.640625 C 386.933594 144.902344 384.554688 141.035156 381.578125 140.9375 L 380.234375 140.9375 C 379.855469 140.9375 379.550781 140.449219 379.550781 139.847656 C 379.59375 131.519531 375.398438 124.703125 370.167969 124.609375 C 366.410156 124.644531 363.027344 128.238281 361.570312 133.746094 C 361.460938 134.148438 361.214844 134.40625 360.941406 134.40625 L 358.753906 134.40625 C 354.660156 134.535156 351.386719 139.859375 351.386719 146.378906 C 351.386719 152.894531 354.660156 158.21875 358.753906 158.347656 L 360.875 158.347656 C 361.253906 158.347656 361.558594 158.835938 361.558594 159.4375 C 361.558594 160.039062 361.253906 160.523438 360.875 160.523438 L 358.753906 160.523438 C 353.90625 160.394531 350.015625 154.097656 350.015625 146.378906 C 350.015625 138.65625 353.90625 132.359375 358.753906 132.230469 L 360.5 132.230469 C 362.269531 126.273438 366.027344 122.460938 370.167969 122.433594 C 375.886719 122.519531 380.585938 129.664062 380.898438 138.757812 L 381.578125 138.757812 C 385.308594 138.855469 388.300781 143.699219 388.300781 149.640625 C 388.300781 155.582031 385.308594 160.425781 381.578125 160.523438 Z M 381.578125 160.523438 "/>
<path style=" stroke:none;fill-rule:nonzero;fill:rgb(24.705882%,23.921569%,33.72549%);fill-opacity:1;" d="M 370.527344 155.355469 C 370.527344 156.707031 369.835938 157.804688 368.988281 157.804688 C 368.140625 157.804688 367.449219 156.707031 367.449219 155.355469 C 367.449219 154.003906 368.140625 152.90625 368.988281 152.90625 C 369.835938 152.90625 370.527344 154.003906 370.527344 155.355469 Z M 370.527344 155.355469 "/>
<path style=" stroke:none;fill-rule:nonzero;fill:rgb(24.705882%,23.921569%,33.72549%);fill-opacity:1;" d="M 375.652344 158.621094 C 375.652344 159.972656 374.964844 161.070312 374.117188 161.070312 C 373.265625 161.070312 372.578125 159.972656 372.578125 158.621094 C 372.578125 157.269531 373.265625 156.171875 374.117188 156.171875 C 374.964844 156.171875 375.652344 157.269531 375.652344 158.621094 Z M 375.652344 158.621094 "/>
<path style=" stroke:none;fill-rule:nonzero;fill:rgb(24.705882%,23.921569%,33.72549%);fill-opacity:1;" d="M 367.109375 162.429688 C 367.109375 163.78125 366.417969 164.878906 365.570312 164.878906 C 364.722656 164.878906 364.03125 163.78125 364.03125 162.429688 C 364.03125 161.078125 364.722656 159.980469 365.570312 159.980469 C 366.417969 159.980469 367.109375 161.078125 367.109375 162.429688 Z M 367.109375 162.429688 "/>
<path style=" stroke:none;fill-rule:nonzero;fill:rgb(24.705882%,23.921569%,33.72549%);fill-opacity:1;" d="M 372.578125 167.871094 C 372.578125 169.222656 371.890625 170.320312 371.039062 170.320312 C 370.191406 170.320312 369.5 169.222656 369.5 167.871094 C 369.5 166.519531 370.191406 165.421875 371.039062 165.421875 C 371.890625 165.421875 372.578125 166.519531 372.578125 167.871094 Z M 372.578125 167.871094 "/>
<path style=" stroke:none;fill-rule:nonzero;fill:rgb(14.117647%,12.54902%,44.313725%);fill-opacity:1;" d="M 79.984375 77.8125 L 40.335938 77.8125 C 37.3125 77.8125 34.863281 73.914062 34.863281 69.105469 C 34.863281 64.300781 37.3125 60.402344 40.335938 60.402344 L 79.984375 60.402344 C 83.003906 60.402344 85.453125 64.300781 85.453125 69.105469 C 85.453125 73.914062 83.003906 77.8125 79.984375 77.8125 Z M 79.984375 77.8125 "/>
<path style=" stroke:none;fill-rule:nonzero;fill:rgb(14.117647%,12.54902%,44.313725%);fill-opacity:1;" d="M 157.234375 77.8125 L 117.585938 77.8125 C 114.5625 77.8125 112.113281 73.914062 112.113281 69.105469 C 112.113281 64.300781 114.5625 60.402344 117.585938 60.402344 L 157.234375 60.402344 C 160.253906 60.402344 162.703125 64.300781 162.703125 69.105469 C 162.703125 73.914062 160.253906 77.8125 157.234375 77.8125 Z M 157.234375 77.8125 "/>
<path style=" stroke:none;fill-rule:nonzero;fill:rgb(14.117647%,12.54902%,44.313725%);fill-opacity:1;" d="M 234.484375 77.8125 L 194.835938 77.8125 C 191.8125 77.8125 189.363281 73.914062 189.363281 69.105469 C 189.363281 64.300781 191.8125 60.402344 194.835938 60.402344 L 234.484375 60.402344 C 237.503906 60.402344 239.953125 64.300781 239.953125 69.105469 C 239.953125 73.914062 237.503906 77.8125 234.484375 77.8125 Z M 234.484375 77.8125 "/>
<path style=" stroke:none;fill-rule:nonzero;fill:rgb(14.117647%,12.54902%,44.313725%);fill-opacity:1;" d="M 311.734375 77.8125 L 272.085938 77.8125 C 269.0625 77.8125 266.613281 73.914062 266.613281 69.105469 C 266.613281 64.300781 269.0625 60.402344 272.085938 60.402344 L 311.734375 60.402344 C 314.753906 60.402344 317.203125 64.300781 317.203125 69.105469 C 317.203125 73.914062 314.753906 77.8125 311.734375 77.8125 Z M 311.734375 77.8125 "/>
<path style=" stroke:none;fill-rule:nonzero;fill:rgb(14.117647%,12.54902%,44.313725%);fill-opacity:1;" d="M 388.984375 77.8125 L 349.335938 77.8125 C 346.3125 77.8125 343.863281 73.914062 343.863281 69.105469 C 343.863281 64.300781 346.3125 60.402344 349.335938 60.402344 L 388.984375 60.402344 C 392.003906 60.402344 394.453125 64.300781 394.453125 69.105469 C 394.453125 73.914062 392.003906 77.8125 388.984375 77.8125 Z M 388.984375 77.8125 "/>
<path style=" stroke:none;fill-rule:nonzero;fill:rgb(90.196078%,90.196078%,90.196078%);fill-opacity:1;" d="M 97.074219 180.113281 C 96.699219 180.113281 96.390625 179.628906 96.390625 179.027344 L 96.390625 96.316406 C 96.390625 95.714844 96.699219 95.226562 97.074219 95.226562 C 97.453125 95.226562 97.757812 95.714844 97.757812 96.316406 L 97.757812 179.027344 C 97.757812 179.628906 97.453125 180.113281 97.074219 180.113281 Z M 97.074219 180.113281 "/>
<path style=" stroke:none;fill-rule:nonzero;fill:rgb(90.196078%,90.196078%,90.196078%);fill-opacity:1;" d="M 174.324219 179.027344 C 173.949219 179.027344 173.640625 178.539062 173.640625 177.9375 L 173.640625 95.226562 C 173.640625 94.625 173.949219 94.136719 174.324219 94.136719 C 174.703125 94.136719 175.007812 94.625 175.007812 95.226562 L 175.007812 177.9375 C 175.007812 178.539062 174.703125 179.027344 174.324219 179.027344 Z M 174.324219 179.027344 "/>
<path style=" stroke:none;fill-rule:nonzero;fill:rgb(90.196078%,90.196078%,90.196078%);fill-opacity:1;" d="M 255.675781 179.027344 C 255.300781 179.027344 254.992188 178.539062 254.992188 177.9375 L 254.992188 95.226562 C 254.992188 94.625 255.300781 94.136719 255.675781 94.136719 C 256.054688 94.136719 256.359375 94.625 256.359375 95.226562 L 256.359375 177.9375 C 256.359375 178.539062 256.054688 179.027344 255.675781 179.027344 Z M 255.675781 179.027344 "/>
<path style=" stroke:none;fill-rule:nonzero;fill:rgb(90.196078%,90.196078%,90.196078%);fill-opacity:1;" d="M 332.925781 179.027344 C 332.550781 179.027344 332.242188 178.539062 332.242188 177.9375 L 332.242188 95.226562 C 332.242188 94.625 332.550781 94.136719 332.925781 94.136719 C 333.304688 94.136719 333.609375 94.625 333.609375 95.226562 L 333.609375 177.9375 C 333.609375 178.539062 333.304688 179.027344 332.925781 179.027344 Z M 332.925781 179.027344 "/>
<path style=" stroke:none;fill-rule:nonzero;fill:rgb(24.705882%,23.921569%,33.72549%);fill-opacity:1;" d="M 617.191406 456 L 356.726562 456 C 356.351562 456 356.042969 455.511719 356.042969 454.910156 C 356.042969 454.3125 356.351562 453.824219 356.726562 453.824219 L 617.191406 453.824219 C 617.566406 453.824219 617.875 454.3125 617.875 454.910156 C 617.875 455.511719 617.566406 456 617.191406 456 Z M 617.191406 456 "/>
</g>
</svg>
